inDegrees=yes
name=ik_S53_A08_T01
DataType=double
version=3
OpenSimVersion=4.3-2021-08-27-4bc7ad9
endheader
time	pelvis_tilt	pelvis_list	pelvis_rotation	pelvis_tx	pelvis_ty	pelvis_tz	hip_flexion_r	hip_adduction_r	hip_rotation_r	knee_angle_r	knee_angle_r_beta	ankle_angle_r	subtalar_angle_r	mtp_angle_r	hip_flexion_l	hip_adduction_l	hip_rotation_l	knee_angle_l	knee_angle_l_beta	ankle_angle_l	subtalar_angle_l	mtp_angle_l	lumbar_extension	lumbar_bending	lumbar_rotation	arm_flex_r	arm_add_r	arm_rot_r	elbow_flex_r	pro_sup_r	wrist_flex_r	wrist_dev_r	arm_flex_l	arm_add_l	arm_rot_l	elbow_flex_l	pro_sup_l	wrist_flex_l	wrist_dev_l
6.616666666666648	-4.857389711779215	-3.281125596168294	26.51621495259669	0	0.9399999999999999	0	21.26896242521769	-8.03810234850107	-6.779567257913797	23.70518700377855	0.4137335630169053	0	0	0	21.26896242521769	-8.03810234850107	-6.779567257913797	23.70518700377855	0.4137335630169053	0	0	0	-2.999843605905756	-0.8597955145091728	7.233588678520142	28.56545117147763	-7.958217977398797	-4.091317158879537	56.66156810467211	152.3792025606209	0	0	54.50912524097912	-15.16518336244854	13.42573945172149	42.63500803915398	73.87844945458627	0	0
6.633333333333315	-4.918934535913957	-3.291602932550646	26.37836509124438	0	0.9399999999999999	0	21.28471742436678	-8.042174566876207	-6.78387801431151	23.72156810739038	0.4140194672100418	0	0	0	21.28471742436678	-8.042174566876207	-6.78387801431151	23.72156810739038	0.4140194672100418	0	0	0	-3.055149474812926	-0.8534534348236648	7.377824652700751	28.65281232971108	-7.994282910584932	-4.108134781053462	56.67910910769085	152.416029675469	0	0	55.44862701428941	-14.7881071836621	13.85615710461251	41.42260090284405	72.829241126311	0	0
6.649999999999982	-4.958870018165977	-3.277885237797031	26.20062536903501	0	0.9399999999999999	0	21.29617447750952	-8.045076746096834	-6.786975918458966	23.73366452408744	0.4142305895090989	0	0	0	21.29617447750952	-8.045076746096834	-6.786975918458966	23.73366452408744	0.4142305895090989	0	0	0	-3.077639857495865	-0.8370422211276144	7.55417431649989	28.66805572976187	-8.065372938447215	-4.11864809832442	56.71162280277748	152.4227048253615	0	0	56.20529763610892	-14.54684242624782	14.24818672944761	40.35677867485636	72.10863777634999	0	0
6.666666666666648	-4.987579767400896	-3.289994185354509	26.07761237666241	0	0.9399999999999999	0	21.31042342123385	-8.048733633535276	-6.790859689481527	23.74853648232657	0.4144901541465908	0	0	0	21.31042342123385	-8.048733633535276	-6.790859689481527	23.74853648232657	0.4144901541465908	0	0	0	-3.103541059458679	-0.8455719256416503	7.690820904118493	28.73499061132179	-8.072224414520452	-4.131529811998506	56.66116936892244	152.2950672145555	0	0	56.96548795951139	-14.25064807390912	14.61849474858839	39.27194366326161	71.90297208990435	0	0
6.683333333333315	-4.987084025732599	-3.290433221103492	25.95081880302307	0	0.9399999999999999	0	21.3237942329611	-8.052167700218785	-6.794506469827992	23.76246990445221	0.4147333382387534	0	0	0	21.3237942329611	-8.052167700218785	-6.794506469827992	23.76246990445221	0.4147333382387534	0	0	0	-3.098499228367829	-0.8554613404059002	7.811354437429475	28.68477174871516	-8.078530778694262	-4.128116310405992	56.70156466623337	152.2045375690655	0	0	57.60298367865174	-13.92561120644294	14.89974649279216	38.25653075398293	71.83067885066271	0	0
6.699999999999982	-5.095476864528917	-3.343750535871876	26.01809088148288	0	0.9399999999999999	0	21.36680817776289	-8.061354440817983	-6.805331211278065	23.80630146507414	0.4154983432878936	0	0	0	21.36680817776289	-8.061354440817983	-6.805331211278065	23.80630146507414	0.4154983432878936	0	0	0	-3.222109196605397	-0.8571284626888828	7.819838351642697	28.92524871734533	-8.145161799681443	-4.191429637854336	56.69357656345384	152.2074897187279	0	0	57.85222295119137	-13.84277803158735	14.9295690566205	38.25467095299069	71.83357999662059	0	0
6.716666666666648	-5.118835596063085	-3.340817641917304	25.93727455859062	0	0.9399999999999999	0	21.37853037163417	-8.064366373214861	-6.808530698694454	23.81847757033127	0.4157108564146998	0	0	0	21.37853037163417	-8.064366373214861	-6.808530698694454	23.81847757033127	0.4157108564146998	0	0	0	-3.237483637318843	-0.8524964560384236	7.920075615551417	28.84437407939344	-8.198885338851946	-4.133261045937543	56.79355448867947	151.9774522576544	0	0	58.47479982733123	-13.58336564778004	15.37936629572913	37.5287947461719	71.52041722461705	0	0
6.733333333333315	-5.17060758322174	-3.36658517850108	25.84518512891775	0	0.9399999999999999	0	21.3910733019757	-8.067595929284536	-6.811959054169026	23.83147347253523	0.4159376776974261	0	0	0	21.3910733019757	-8.067595929284536	-6.811959054169026	23.83147347253523	0.4159376776974261	0	0	0	-3.289142993618348	-0.8644575568551554	8.053852831147305	28.91762900210636	-8.247687923277635	-4.139428811532675	56.8242324512794	151.9448861314313	0	0	59.10844561029558	-13.31803245272715	16.13144015597364	36.71748139065819	70.83885876233607	0	0
6.749999999999981	-5.221880339110653	-3.37549377537102	25.74133462834917	0	0.9399999999999999	0	21.40396269433329	-8.070912182838528	-6.815481114016653	23.84482566410687	0.4161707174027084	0	0	0	21.40396269433329	-8.070912182838528	-6.815481114016653	23.84482566410687	0.4161707174027084	0	0	0	-3.332630494926054	-0.8620670751896513	8.191706587698036	29.00102870279958	-8.286602986819503	-4.107571229662075	56.84287819938964	151.9235125473572	0	0	59.73671942347291	-12.95715261814624	16.86848995029411	35.81844285930369	70.18136334609046	0	0
